# xmcd
#
# Track frame offsets:
#	150
#	19482
#	34735
#	49527
#	68985
#	86587
#	109855
#	114197
#	134287
#	154705
#	178602
#	192687
#
# Disc length: 2833 seconds
#
# Revision: 1
# Processed by: cddbd v1.5.1PL0 Copyright (c) Steve Scherf et al.
# Submitted via: CDex 1.50Beta5
#
DISCID=a10b0f0c
DTITLE=山口百恵 - 曼珠沙華
DYEAR=1990
DGENRE=Pop
TTITLE0=いい日旅立ち
TTITLE1=シュルード・フェロー
TTITLE2=惜春通り
TTITLE3=ジェラシー
TTITLE4=夢のあとさき
TTITLE5=曼珠沙華
TTITLE6=横須賀サンセット・サンライズ
TTITLE7=プリティ・ハーロット
TTITLE8=ひとふさの葡萄
TTITLE9=十五の頃
TTITLE10=ひといろ足りない虹のように
TTITLE11=横須賀サンセット・サンライズ
EXTD=
EXTT0=
EXTT1=
EXTT2=
EXTT3=
EXTT4=
EXTT5=
EXTT6=
EXTT7=
EXTT8=
EXTT9=
EXTT10=
EXTT11=
PLAYORDER=
